<svg width="264" height="264" viewBox="0 0 264 264" fill="none" xmlns="http://www.w3.org/2000/svg">
<rect x="4" y="4" width="256" height="256" rx="15" fill="url(#paint0_linear_8_38)"/>
<g filter="url(#filter0_f_8_38)">
<rect x="4" y="4" width="256" height="256" rx="15" fill="url(#paint1_linear_8_38)"/>
</g>
<rect x="27.7607" y="27.7609" width="208.478" height="208.478" rx="8.5" fill="#F3CBA5" stroke="#0C0A1F" stroke-width="3"/>
<ellipse cx="97.1678" cy="122.546" rx="21.3541" ry="21.3541" transform="rotate(2.50553 97.1678 122.546)" fill="#0C0A1F"/>
<circle cx="166.243" cy="124.48" r="24.3775" transform="rotate(2.50553 166.243 124.48)" fill="#0C0A1F"/>
<path d="M87.4697 116.543C85.5232 118.653 86.6918 122.898 84.5819 120.951C82.4721 119.005 82.3396 115.716 84.2861 113.606C86.2326 111.496 89.5209 111.364 91.6308 113.311C93.7407 115.257 89.4162 114.433 87.4697 116.543Z" fill="white"/>
<path d="M157.381 115.688C154.781 118.506 156.342 124.175 153.524 121.575C150.705 118.975 150.529 114.583 153.129 111.765C155.728 108.947 160.121 108.77 162.939 111.37C165.757 113.97 159.981 112.87 157.381 115.688Z" fill="white"/>
<path d="M108.737 32.6052H155.262V72.7861L147.861 69.6139L137.287 73.8435L127.77 68.5565L122.483 75.9583L116.139 66.4417L108.737 72.7861V32.6052Z" fill="#FFEEDE"/>
<path d="M146.131 161.474C143.487 181.216 121.972 183.058 114.729 166.444" stroke="#0C0A1F" stroke-width="2" stroke-linecap="round"/>
<path d="M116.372 158.116C117.868 165.305 110.219 169.123 105.493 164.475" stroke="#0C0A1F" stroke-width="2" stroke-linecap="round"/>
<path d="M217.516 49.7878L216.966 59.1563C216.936 59.6612 216.714 60.1358 216.346 60.4827C215.978 60.8297 215.492 61.0228 214.986 61.0226H205.508C205.002 61.0228 204.515 60.8297 204.147 60.4827C203.779 60.1358 203.558 59.6612 203.528 59.1563L202.977 49.7878M208.264 53.4226L210.247 55.4052M210.247 55.4052L212.229 57.3878M210.247 55.4052L212.229 53.4226M210.247 55.4052L208.264 57.3878M202.647 49.7878H217.847C218.394 49.7878 218.838 49.3437 218.838 48.7965V47.4748C218.838 46.9276 218.394 46.4835 217.847 46.4835H202.647C202.1 46.4835 201.656 46.9276 201.656 47.4748V48.7965C201.656 49.3437 202.1 49.7878 202.647 49.7878Z" stroke="black" stroke-opacity="0.53" stroke-width="0.5" stroke-linecap="round" stroke-linejoin="round"/>
<defs>
<filter id="filter0_f_8_38" x="0" y="0" width="264" height="264" filterUnits="userSpaceOnUse" color-interpolation-filters="sRGB">
<feFlood flood-opacity="0" result="BackgroundImageFix"/>
<feBlend mode="normal" in="SourceGraphic" in2="BackgroundImageFix" result="shape"/>
<feGaussianBlur stdDeviation="2" result="effect1_foregroundBlur_8_38"/>
</filter>
<linearGradient id="paint0_linear_8_38" x1="-96.7874" y1="-47.4783" x2="369.296" y2="165.232" gradientUnits="userSpaceOnUse">
<stop stop-color="#A0BDD9" stop-opacity="0.0784314"/>
<stop offset="1" stop-color="#0C66E4"/>
</linearGradient>
<linearGradient id="paint1_linear_8_38" x1="132" y1="4" x2="132" y2="260" gradientUnits="userSpaceOnUse">
<stop stop-color="white" stop-opacity="0.160784"/>
<stop offset="1" stop-color="#FBFDFF" stop-opacity="0.0784314"/>
</linearGradient>
</defs>
</svg>
